<?xml version="1.0" encoding="utf-8"?>
<!-- Generator: Adobe Illustrator 24.1.0, SVG Export Plug-In . SVG Version: 6.00 Build 0)  -->
<svg version="1.1" id="Capa_1" xmlns="http://www.w3.org/2000/svg" xmlns:xlink="http://www.w3.org/1999/xlink" x="0px" y="0px"
	 viewBox="0 0 51 51" style="enable-background:new 0 0 51 51;" xml:space="preserve">
<style type="text/css">
	.st0{fill:url(#SVGID_1_);}
	.st1{fill:#FFFFFF;}
</style>
<g>
	
		<linearGradient id="SVGID_1_" gradientUnits="userSpaceOnUse" x1="83.3397" y1="-276.9969" x2="119.8458" y2="-240.4909" gradientTransform="matrix(0 1 -1 0 -232.5334 -77.0927)">
		<stop  offset="0" style="stop-color:#00CCFF"/>
		<stop  offset="1" style="stop-color:#0080FF"/>
	</linearGradient>
	<path class="st0" d="M5.71,37.35v-25.7C5.71,7.44,9.15,4,13.36,4h25.7c4.21,0,7.65,3.44,7.65,7.65v25.7c0,4.21-3.44,7.65-7.65,7.65
		h-25.7C9.15,45,5.71,41.56,5.71,37.35z"/>
	<path class="st1" d="M37.54,17.48c-0.71,0.32-1.5,0.52-2.26,0.64c0.36-0.06,0.9-0.72,1.11-0.99c0.33-0.41,0.6-0.87,0.75-1.37
		c0.02-0.04,0.03-0.09-0.01-0.12c-0.05-0.02-0.08-0.01-0.12,0.01c-0.86,0.46-1.74,0.79-2.68,1.03c-0.08,0.02-0.14,0-0.18-0.05
		c-0.08-0.09-0.15-0.17-0.23-0.24c-0.4-0.34-0.82-0.6-1.3-0.8c-0.63-0.26-1.31-0.36-1.99-0.32c-0.66,0.04-1.31,0.23-1.89,0.53
		c-0.59,0.31-1.11,0.73-1.52,1.25c-0.43,0.53-0.75,1.16-0.91,1.82c-0.16,0.64-0.14,1.28-0.05,1.93c0.01,0.11,0,0.12-0.09,0.11
		c-3.68-0.55-6.73-1.87-9.21-4.69c-0.11-0.12-0.17-0.12-0.25,0.01c-1.08,1.63-0.56,4.24,0.8,5.52c0.18,0.17,0.37,0.34,0.57,0.5
		c-0.07,0.02-0.97-0.08-1.78-0.5c-0.11-0.07-0.16-0.03-0.17,0.09c-0.01,0.18,0.01,0.34,0.03,0.53c0.21,1.65,1.35,3.17,2.91,3.77
		c0.19,0.08,0.39,0.15,0.59,0.18c-0.36,0.08-0.72,0.13-1.74,0.05c-0.13-0.02-0.18,0.04-0.13,0.16c0.77,2.09,2.42,2.71,3.66,3.07
		c0.17,0.03,0.33,0.03,0.5,0.07c-0.01,0.02-0.02,0.02-0.03,0.03c-0.41,0.63-1.84,1.09-2.5,1.33c-1.21,0.42-2.52,0.61-3.8,0.49
		c-0.2-0.03-0.25-0.03-0.3,0c-0.06,0.03-0.01,0.08,0.06,0.14c0.26,0.17,0.52,0.32,0.79,0.47c0.81,0.43,1.66,0.77,2.54,1.02
		c4.56,1.26,9.71,0.33,13.13-3.07c2.69-2.67,3.63-6.36,3.63-10.05c0-0.14,0.17-0.22,0.27-0.3c0.7-0.53,1.26-1.16,1.79-1.86
		c0.12-0.16,0.12-0.3,0.12-0.36c0-0.01,0-0.02,0-0.02C37.63,17.42,37.63,17.43,37.54,17.48z"/>
</g>
</svg>
